<svg id="Слой_1" data-name="Слой 1" xmlns="http://www.w3.org/2000/svg" viewBox="0 0 400 70"><defs><style>.cls-1{fill:#52ae32;fill-rule:evenodd;}</style></defs><title>belwest_logo</title><path class="cls-1" d="M329.07.24c-11.63,0-21.46,9.62-22.6,19.15-1,7.33,1.79,15.73,4,19.56,6.1,10.19-5.2,23.31-10.33,28.69-.89,1-.65,2.36.89,2.36h13.41c1.54,0,1.63.16,3.58-1.87,4.8-5.05,15.69-20,3.82-39.53-4.31-7.66-2.28-23.31,8.86-23.31,9,0,5.94,9.37,3.09,16.63-1.38,3.67,6.18,3.91,7.15,1.39C345.58,12.14,343.63.24,329.07.24Z"/><path class="cls-1" d="M139.06,3.17c-6.26,20.29-12.44,40.67-18.7,61-.24,1.71.16,5.22,3.33,5.87h25.94c3.09,0,4.7-4.74,1.12-4.74H140.18c-.81,0-1.22-.65-1.06-1.47C145.31,43.82,152,23.06,157.68,3a1.94,1.94,0,0,0-2-2.77H143.21A5.19,5.19,0,0,0,139.06,3.17Z"/><path class="cls-1" d="M56.52,6.77C54.43,3.18,51.36.24,45.51.24H23a5.19,5.19,0,0,0-4.15,2.93C12.63,23.46,6.45,43.84.19,64.13-.89,68.95,3,69.91,3.28,70H26.37c3.66-.08,8-.29,10.43-1.26a14.22,14.22,0,0,0,5.36-3.25c2.76-2.12,5.75-7.46,7.29-12.59s2.2-10.28,1-13.21-4.19-5.13-7.61-5.95c2.93-1.14,5.37-1.63,8.14-4.23s4.8-6.89,5.82-11.32C57.75,13.93,57.83,9,56.52,6.77ZM33.6,51.09C32.06,56,29.21,61,26.37,63c-.16.08-.24.25-.41.33a10.55,10.55,0,0,1-6.33,1.86A1.11,1.11,0,0,1,19,63.79c2.84-9.17,8.31-27,8.58-27.46a1.1,1.1,0,0,1,1.2-.48C37.18,36.83,35.56,45.87,33.6,51.09ZM42.75,18.9c-1.55,5-3.6,8.08-7.21,10.36a12.17,12.17,0,0,1-5.45,1.88c-.92-.1-.9-.48-.83-.69,2.66-8.62,5-16.08,7.44-24.58.26-.94,1-1,1.73-.89C46.8,6,44.7,13.76,42.75,18.9Z"/><path class="cls-1" d="M247.44,70h27.48c2.28-.16,3.82-4.56,1.63-4.65H263.46c-.81-.08-.81-1-.73-1.3,2.6-8.72,5.53-17.36,8.29-26.08a3.26,3.26,0,0,1,2.93-1.79,84.55,84.55,0,0,1,9.11,0c1.71,0,4.15-4.73,1.38-4.73h-9.27c-.49-.08-2-.41-1.3-2.53l6.91-22.33a3.3,3.3,0,0,1,2.93-2h11.06c1.87-.24,3.58-4.24,1.54-4.32H266.55a4.51,4.51,0,0,0-4.15,2.77l-18.78,61C243.05,66.57,244.6,70.08,247.44,70Z"/><path class="cls-1" d="M70.36,70c9.19-.08,18.29,0,27.48,0,2.2-.24,3.74-4.65,1.55-4.73h-13a.92.92,0,0,1-.73-1.3c2.6-8.72,5.53-17.36,8.29-26a2.79,2.79,0,0,1,2.85-1.87c2.78,0,6.1,0,9.11,0,1.71,0,4.15-4.73,1.46-4.73H98c-.41,0-2-.33-1.3-2.45l6.8-22a3.52,3.52,0,0,1,2.93-2h11.06c1.87-.24,3.69-4.58,1.65-4.74C110,.32,96.86.32,89.46.32a4.39,4.39,0,0,0-4.15,2.77L66.53,64C66,66.57,67.51,70,70.36,70Z"/><path class="cls-1" d="M357.09,5h8.7c1.22.08,2,.65,1.71,1.87-6.26,20.78-11.75,38.8-18.09,59.58-.41,1.55.57,3.51,2,3.59h13.18a3.81,3.81,0,0,0,3.09-2.69c6.5-21.11,12.36-39.82,18.78-60.92a2.15,2.15,0,0,1,2-1.38H397c2.11-.16,4.71-4.76,1.54-4.76-12,0-27.49.08-39.44,0C357.29.24,355.22,4.71,357.09,5Z"/><path class="cls-1" d="M240.55,1.77l-26,50.28a2.78,2.78,0,0,1,0-.48c.41-4.64,1.38-9.21,2-13.85,1.46-10.92,2.76-21.84,4.31-32.84a3.77,3.77,0,0,0-1.47-3.53c-.86-.65-1.77-1.23-4.74-1.13,0,0,3.41,0,0,0s-7.63,1.48-8.51,5-1.48,9.57-1.89,13L190.43,47.14l-1.71,3c-.73,1-1.3,1.14-1.06-.08,2.68-15.48,3.92-29.76,6.61-45.25,1-5.38-12.76-6.51-14.47-.07l-8.86,62.18c-.24,2,.57,2.77,2.28,2.93,2.44.33,9.51.64,11.14-1.48a46.71,46.71,0,0,0,3.6-6.11c1.3-2.5,14.45-30.1,14.45-30.1-1.68,11.64-3.38,23.4-4.89,34.94-.24,2,.49,2.85,1.71,2.85,2.19,0,10,.65,11.67-1.63a42.39,42.39,0,0,0,3-4.5L245.27,3C246.91-.23,242-1,240.55,1.77Z"/></svg>