<svg id="Layer_1" data-name="Layer 1" xmlns="http://www.w3.org/2000/svg" viewBox="0 0 28 28"><defs><style>.cls-1{fill:#ff5d5d;}</style></defs><title>cart</title><path class="cls-1" d="M9.18,11.74a1.17,1.17,0,0,0,1.17-1.17V6a3.69,3.69,0,1,1,7.38,0v4.55a1.17,1.17,0,0,0,2.33,0V6A6,6,0,1,0,8,6v4.55A1.17,1.17,0,0,0,9.18,11.74Z"/><path class="cls-1" d="M27.42,9.12H21.22v1.45a2.33,2.33,0,0,1-4.67,0V9.12h-5v1.45a2.33,2.33,0,0,1-4.67,0V9.12H.58a.44.44,0,0,0-.44.57L4.22,26.31A2.39,2.39,0,0,0,6.42,28H21.58a2.39,2.39,0,0,0,2.2-1.69L27.86,9.68A.44.44,0,0,0,27.42,9.12Z"/></svg>